<?xml version="1.0" standalone="no"?>
<!DOCTYPE svg PUBLIC "-//W3C//DTD SVG 20010904//EN"
 "http://www.w3.org/TR/2001/REC-SVG-20010904/DTD/svg10.dtd">
<svg version="1.0" xmlns="http://www.w3.org/2000/svg"
 width="1470.000000pt" height="980.000000pt" viewBox="0 0 1470.000000 980.000000"
 preserveAspectRatio="xMidYMid meet">

<g transform="translate(0.000000,980.000000) scale(0.100000,-0.100000)"
fill="#000000" stroke="none">
<path d="M3457 8370 c-53 -16 -146 -95 -189 -161 -27 -42 -35 -48 -85 -58
-143 -28 -257 -117 -415 -324 -144 -187 -367 -466 -411 -514 -33 -36 -45 -43
-78 -43 -31 0 -48 -8 -80 -37 -158 -143 -589 -884 -705 -1214 -15 -41 -28
-101 -31 -134 -4 -55 -2 -64 27 -108 103 -153 421 -354 1000 -632 399 -192
720 -384 884 -528 l48 -43 -17 -110 c-23 -149 -85 -474 -140 -739 -87 -413
-164 -800 -190 -945 l-25 -145 -151 -305 c-83 -168 -158 -313 -166 -322 -12
-13 -32 -18 -73 -18 -31 0 -83 -5 -115 -12 -51 -10 -67 -19 -127 -76 -79 -75
-179 -198 -265 -327 -73 -109 -99 -160 -108 -207 -7 -36 2 -49 61 -84 17 -10
17 -13 -3 -70 -60 -166 -145 -465 -150 -526 -7 -85 5 -116 69 -173 85 -77 223
-114 515 -138 94 -8 176 -17 181 -21 5 -3 12 -65 15 -137 4 -73 10 -136 15
-141 5 -5 17 -6 26 -2 16 6 17 18 10 137 -6 125 -6 130 12 122 59 -24 197 -55
245 -55 109 0 195 51 231 137 72 173 118 285 133 326 20 53 29 56 96 31 70
-24 273 -72 399 -94 199 -34 338 -44 560 -43 358 2 659 54 877 153 l62 28 6
-31 c4 -25 57 -459 79 -651 6 -48 19 -64 41 -46 18 15 22 -24 -36 444 -22 180
-39 329 -37 331 7 6 190 -45 266 -75 86 -33 208 -108 251 -154 32 -34 59 -33
73 2 17 42 22 333 9 498 -7 82 -36 345 -66 584 -30 239 -60 504 -67 589 l-12
154 32 126 c17 69 57 203 87 297 l55 172 42 -9 c24 -6 72 -30 108 -54 36 -25
72 -45 81 -45 12 0 19 -23 32 -98 40 -235 55 -405 67 -757 6 -159 15 -328 20
-375 22 -180 79 -339 160 -447 73 -96 224 -193 302 -193 l36 0 7 -117 c14
-207 -8 -646 -41 -836 -7 -37 2 -46 31 -36 6 2 503 6 1105 9 l1095 5 -1092 3
c-1023 2 -1092 3 -1086 19 4 11 8 12 11 5 2 -7 11 -12 19 -12 16 0 16 18 -1
160 -4 37 -1 32 14 -25 11 -38 20 -82 20 -97 0 -16 5 -28 10 -28 6 0 10 11 10
24 0 13 3 37 6 54 5 23 10 28 25 25 13 -4 19 0 19 12 0 14 -3 15 -15 5 -11 -9
-15 -9 -15 -1 0 7 -5 9 -10 6 -6 -4 -10 6 -10 22 0 29 13 36 63 34 40 -1 48
-4 37 -15 -5 -5 -10 -21 -10 -34 0 -24 0 -24 98 -20 53 2 111 1 127 -3 21 -6
14 -7 -20 -3 -36 3 -46 2 -35 -5 11 -8 5 -9 -21 -5 -20 3 -62 0 -95 -7 l-59
-14 40 -3 c22 -2 41 1 43 7 4 13 74 15 87 2 6 -5 54 -14 107 -21 163 -19 186
-20 199 -4 15 18 39 18 64 0 34 -23 135 -40 245 -40 91 0 98 -1 50 -8 -30 -4
-86 -6 -125 -3 l-70 4 55 -9 c37 -7 89 -6 158 2 78 8 106 8 114 0 7 -7 28 -11
48 -11 21 1 27 3 15 6 -11 3 -25 9 -32 14 -6 6 -89 13 -185 17 -156 6 -165 8
-93 13 77 6 76 6 -20 4 -55 -1 -109 1 -120 6 -11 4 68 8 176 8 150 1 205 -2
231 -13 26 -11 50 -13 99 -7 35 5 75 8 89 8 70 -2 110 4 110 16 0 10 15 13 58
10 46 -3 52 -1 33 7 -14 6 -21 14 -15 19 8 7 96 24 189 37 26 3 26 2 -5 -6
-19 -6 -69 -17 -110 -25 -65 -12 -68 -13 -20 -9 30 2 103 7 163 11 92 5 107 8
107 23 0 9 6 17 13 18 33 4 146 12 177 13 19 0 29 3 23 6 -22 8 -14 21 10 16
16 -3 18 -2 8 5 -11 8 -11 10 0 15 8 3 -6 4 -31 2 l-45 -5 38 10 c25 7 45 7
57 0 13 -7 21 -7 25 1 4 6 13 8 21 5 7 -3 16 -1 19 4 3 5 -3 11 -12 13 -10 3
4 3 30 1 26 -1 69 4 95 12 148 47 212 56 212 29 0 -16 -22 -19 -94 -16 -48 3
-86 -6 -86 -19 0 -6 15 -10 33 -9 27 0 29 2 12 10 -14 6 1 7 45 4 36 -2 71 -4
78 -4 9 -1 12 -28 12 -101 l0 -100 35 0 c26 0 33 3 29 15 -4 9 0 15 10 15 12
0 16 -10 17 -42 0 -39 1 -41 10 -18 6 14 8 35 6 47 -2 12 0 20 4 17 5 -3 9
-20 9 -39 0 -50 16 -85 40 -85 25 0 24 -20 1 292 -11 139 -23 303 -26 363 l-7
110 30 17 c51 30 149 144 184 215 l33 68 0 205 c0 226 -15 344 -80 644 -19 88
-33 161 -32 163 4 3 265 -359 296 -410 22 -36 23 -46 17 -125 -11 -133 -41
-285 -107 -542 -138 -537 -159 -623 -194 -793 -20 -98 -34 -184 -31 -192 8
-22 35 -18 46 7 5 13 21 84 35 158 14 74 51 234 82 355 30 121 60 242 67 269
l11 49 38 -42 c113 -125 444 -279 734 -341 71 -16 149 -23 283 -27 161 -5 202
-2 314 17 248 42 424 123 926 428 113 69 219 134 237 144 59 36 74 24 102 -77
23 -84 25 -105 25 -340 0 -212 -3 -271 -23 -390 -38 -240 -37 -217 -11 -213
27 3 33 19 55 148 27 154 36 272 36 461 0 292 -29 411 -181 741 -65 140 -65
133 -9 163 42 23 106 102 124 153 25 71 29 192 11 302 -29 181 -82 332 -209
605 -88 190 -177 386 -177 390 0 2 19 6 43 10 23 4 62 16 86 26 l43 19 -4 53
c-6 78 -215 557 -303 697 -14 22 -21 40 -15 40 6 0 90 -20 188 -44 381 -95
568 -116 739 -80 185 38 245 112 247 304 2 243 -106 397 -904 1285 -390 434
-542 613 -645 759 -60 85 -63 112 -40 321 25 230 29 315 15 364 -16 62 -64
107 -120 115 -25 4 -59 15 -77 24 -28 14 -39 14 -85 4 -29 -7 -75 -16 -103
-20 -27 -4 -72 -21 -99 -37 -26 -17 -96 -55 -154 -86 -58 -32 -112 -65 -119
-75 -19 -26 -16 -75 8 -146 46 -135 95 -208 140 -208 14 0 17 -15 22 -82 3
-46 10 -100 16 -120 19 -61 72 -129 159 -203 56 -47 102 -98 141 -155 196
-289 593 -1010 556 -1010 -29 0 -136 40 -305 115 -178 78 -264 108 -344 120
-27 3 -56 14 -64 22 -13 12 -30 14 -91 9 -148 -14 -231 -42 -273 -95 -21 -26
-103 -61 -144 -61 -7 0 -14 25 -19 67 -15 138 -54 213 -175 329 -135 131 -214
239 -363 494 -30 53 -76 119 -102 148 -147 164 -375 265 -554 248 -76 -7 -183
-42 -211 -68 -24 -23 -67 -23 -111 0 -48 24 -166 22 -242 -6 -204 -74 -334
-268 -387 -578 -27 -157 -25 -247 10 -487 23 -157 30 -241 30 -356 0 -168 10
-234 45 -286 l24 -35 -59 0 c-32 0 -88 7 -125 15 -77 18 -111 8 -133 -38 -9
-18 -21 -27 -36 -27 -35 0 -136 20 -190 37 -44 14 -48 18 -43 42 3 14 11 62
17 106 11 79 13 81 50 103 50 28 88 78 106 138 19 65 18 110 -7 161 l-21 44
22 87 c56 217 29 479 -56 559 -30 28 -30 36 1 53 27 14 44 56 29 70 -5 4 -27
13 -49 20 -62 19 -115 53 -205 131 -142 122 -289 172 -442 151 -93 -14 -159
-40 -251 -101 l-67 -44 -53 13 c-96 22 -218 -21 -295 -104 -21 -23 -63 -88
-94 -146 -52 -97 -128 -200 -148 -200 -4 0 -11 37 -14 83 -11 126 -42 254 -81
333 -92 187 -445 406 -681 421 -91 6 -139 -5 -173 -40 -18 -20 -19 -26 -8 -42
13 -17 15 -17 46 6 53 39 144 39 261 -1 228 -76 450 -237 514 -374 35 -73 62
-203 75 -356 5 -63 13 -123 17 -133 5 -13 2 -18 -7 -17 -31 5 -37 -2 -43 -52
-4 -28 -13 -66 -21 -85 -15 -36 -75 -97 -116 -118 l-25 -14 20 57 c29 83 28
210 -3 279 -25 56 -63 99 -80 88 -17 -10 -13 -34 9 -65 34 -48 64 -200 39
-200 -4 0 -12 7 -20 16 -37 45 -169 74 -182 40 -8 -21 13 -36 53 -36 39 -1 61
-11 110 -53 33 -28 33 -30 21 -65 -7 -20 -34 -72 -59 -116 -25 -43 -71 -140
-101 -215 -67 -160 -111 -231 -206 -327 -120 -121 -269 -205 -365 -207 -58 -1
-131 40 -223 123 -134 123 -218 257 -257 408 -8 31 -16 42 -30 42 -28 0 -31
-11 -16 -66 21 -78 61 -168 102 -230 51 -76 181 -213 247 -258 l54 -37 -42
-64 c-47 -70 -73 -158 -54 -181 17 -20 36 -6 43 31 10 49 30 94 65 143 31 41
32 42 82 38 27 -2 52 -6 54 -8 8 -8 -16 -231 -27 -261 -16 -41 -92 -103 -154
-127 -108 -40 -277 -21 -386 43 -148 86 -258 322 -288 616 -16 164 -14 185 26
268 19 40 39 71 45 68 26 -17 128 77 179 164 l32 55 -38 35 c-74 70 -95 175
-51 261 34 70 92 79 156 25 22 -19 32 -38 37 -71 7 -50 41 -107 66 -112 12 -2
26 15 48 58 17 34 49 81 71 104 42 47 47 61 24 70 -20 7 -94 -60 -121 -109
-10 -19 -22 -35 -27 -35 -5 0 -7 28 -6 63 4 73 -4 92 -32 77 -15 -8 -25 -6
-48 11 -16 12 -50 24 -75 26 l-46 6 0 94 c0 80 3 95 18 100 23 9 32 23 32 54
0 53 31 127 71 173 38 43 40 49 26 63 -14 14 -17 14 -40 -3 -32 -25 -74 -84
-82 -117 -10 -38 -25 -34 -25 7 0 71 13 98 78 168 148 157 300 252 423 266 55
6 64 10 64 27 0 18 -6 20 -72 19 -62 0 -82 -5 -145 -37 -94 -47 -171 -106
-280 -213 -107 -106 -124 -143 -113 -242 8 -77 8 -73 -1 -252 -6 -118 -9 -138
-29 -165 -65 -88 -61 -210 11 -316 19 -29 33 -57 31 -63 -3 -7 -32 -9 -84 -6
-74 5 -85 9 -159 54 -43 27 -164 112 -269 191 -104 78 -221 161 -258 185 -79
49 -224 114 -347 155 -118 39 -333 119 -760 285 -201 78 -426 164 -500 192
-74 27 -138 53 -142 56 -10 10 117 283 306 661 156 311 167 335 156 361 -11
26 -8 34 31 92 98 145 201 258 254 278 17 7 93 15 170 20 151 9 243 33 371 98
59 30 114 81 114 106 0 6 27 36 61 65 67 59 124 139 134 189 9 42 -14 78 -60
97 -21 9 -42 31 -59 60 -28 47 -68 75 -110 75 -18 0 -30 9 -41 29 -23 46 -62
71 -109 71 -22 0 -47 -4 -55 -9 -10 -6 -25 2 -51 30 -37 40 -53 44 -103 29z
m70 -67 c13 -20 12 -23 -31 -53 -66 -45 -116 -99 -138 -148 -19 -41 -21 -43
-41 -29 -36 24 -34 75 5 125 56 70 145 136 177 130 7 -2 20 -13 28 -25z m185
-50 c10 -9 18 -22 18 -29 0 -7 -37 -32 -82 -56 -77 -41 -174 -121 -196 -163
-9 -16 -14 -18 -36 -7 -49 22 -26 93 56 167 98 89 198 126 240 88z m152 -109
c14 -15 26 -32 26 -39 0 -14 -31 -25 -69 -25 -13 0 -45 -13 -70 -28 -25 -16
-68 -41 -94 -56 -26 -15 -64 -41 -83 -58 l-35 -31 -24 24 c-22 22 -23 27 -11
55 17 39 81 91 176 143 93 50 144 55 184 15z m-624 -53 c0 -22 46 -71 67 -71
8 0 29 -16 46 -35 18 -21 44 -37 63 -41 20 -4 36 -14 39 -25 4 -11 23 -30 43
-44 46 -31 30 -31 -89 0 -51 13 -118 25 -146 25 -65 0 -133 -25 -133 -50 0
-25 21 -31 51 -14 37 20 118 17 221 -11 108 -29 181 -32 238 -9 36 15 45 25
81 100 45 95 79 128 106 101 15 -15 15 -26 -4 -141 -11 -70 -28 -138 -38 -152
-21 -32 -151 -94 -255 -122 -45 -12 -123 -22 -196 -25 -78 -4 -135 -12 -162
-22 -55 -22 -167 -142 -252 -268 -52 -77 -69 -96 -85 -93 -11 2 -56 13 -99 25
-43 11 -136 29 -205 38 -69 9 -128 18 -129 19 -2 1 43 60 100 131 57 70 162
204 233 298 209 272 287 345 413 386 74 23 92 24 92 0z m748 -68 c6 -9 9 -26
6 -37 -10 -30 -57 -96 -94 -131 l-32 -30 8 55 c5 30 9 79 9 107 0 38 4 54 15
57 27 8 75 -4 88 -21z m-325 -112 c-11 -29 -24 -43 -46 -51 -35 -12 -40 -9
-31 13 5 13 80 77 90 77 1 0 -5 -18 -13 -39z m-1152 -705 c174 -24 349 -70
349 -92 0 -4 -83 -171 -184 -373 -174 -347 -286 -587 -286 -614 0 -23 -85
-105 -145 -140 -58 -33 -183 -87 -203 -87 -18 0 -23 -33 -8 -48 13 -13 22 -12
78 8 107 39 201 93 257 147 30 29 60 53 67 53 7 0 33 -9 59 -20 26 -11 84 -33
128 -49 45 -17 165 -62 267 -102 507 -197 732 -282 935 -354 88 -31 193 -73
234 -92 63 -30 286 -173 301 -193 10 -13 217 -166 293 -215 l78 -52 -63 -16
c-101 -27 -149 -36 -221 -42 -97 -9 -101 -16 -93 -139 3 -54 11 -129 16 -165
22 -155 30 -223 25 -231 -3 -4 -40 -22 -83 -40 -200 -81 -260 -112 -271 -139
-32 -82 -46 -293 -61 -941 -6 -256 -15 -541 -19 -635 l-7 -170 -84 -252 -83
-253 -105 -80 -104 -80 -45 50 c-30 34 -60 55 -96 69 -75 27 -274 58 -467 72
-91 7 -167 13 -169 15 -2 2 16 40 40 86 23 46 71 139 106 208 62 122 64 124
58 75 -3 -27 -8 -93 -11 -146 -7 -93 -6 -96 15 -102 31 -8 37 13 50 168 17
219 82 572 256 1410 93 449 154 782 146 809 -4 18 29 -16 50 -50 22 -36 55
-45 65 -19 3 8 -3 29 -14 47 -21 33 -159 174 -217 221 -36 29 -224 157 -231
157 -3 0 -25 14 -50 30 -75 52 -232 139 -399 220 -88 43 -225 109 -305 148
-458 222 -765 428 -837 559 -17 32 -17 36 1 105 34 135 198 481 326 689 16 27
30 51 30 53 0 5 141 235 163 266 7 11 17 17 22 12 5 -4 5 -2 1 5 -7 13 94 161
153 223 38 40 39 40 112 40 41 0 122 -7 180 -14z m8936 -320 c10 -13 27 -42
37 -65 12 -25 26 -41 36 -41 25 0 31 23 14 55 -8 16 -13 32 -12 36 6 17 54
-18 71 -51 22 -41 19 -145 -8 -375 -24 -200 -18 -249 38 -335 95 -141 357
-449 782 -915 343 -376 591 -679 687 -840 65 -108 81 -160 82 -265 1 -83 -2
-102 -26 -153 -24 -51 -33 -61 -80 -82 -116 -52 -306 -58 -538 -15 -140 26
-649 155 -662 168 -13 13 -54 139 -73 224 -26 117 -31 328 -11 440 23 124 22
123 82 105 27 -8 64 -19 83 -24 33 -8 38 -16 113 -177 43 -93 104 -207 135
-254 63 -95 172 -212 197 -212 36 0 24 30 -39 94 -91 93 -145 179 -250 401
-165 349 -318 639 -508 960 -161 274 -226 364 -321 444 -151 128 -166 166
-167 425 -1 202 -6 231 -34 231 -16 0 -20 -6 -18 -34 l1 -34 -30 33 c-27 30
-31 31 -45 17 -14 -14 -12 -19 15 -59 17 -24 37 -50 46 -57 20 -17 21 -74 2
-90 -19 -16 -35 8 -81 122 -54 133 -53 136 59 196 52 28 100 51 107 51 7 0 28
-14 45 -31 20 -20 39 -29 48 -26 24 9 19 30 -13 63 l-29 29 26 17 c43 28 63
22 114 -34 44 -50 47 -52 64 -36 16 16 15 19 -14 53 -38 42 -39 52 -9 58 49 9
66 6 84 -17z m-2202 -1335 c22 -10 65 -38 95 -62 l55 -43 -73 -13 c-106 -17
-174 -66 -140 -100 11 -11 20 -8 50 13 41 30 93 43 162 44 47 0 50 -2 141 -87
140 -134 270 -202 400 -211 56 -3 73 -1 84 11 17 21 6 37 -24 37 -29 0 -132
37 -141 51 -15 24 9 70 52 100 64 44 100 52 135 32 79 -47 68 -212 -21 -286
-47 -40 -34 -85 15 -53 24 16 25 15 31 -10 5 -19 2 -31 -10 -39 -9 -7 -16 -26
-16 -46 0 -19 -9 -99 -21 -178 -24 -164 -20 -244 14 -306 27 -48 73 -80 134
-93 51 -11 73 -7 73 14 0 22 32 83 47 88 20 8 16 -24 -11 -98 -64 -177 -191
-287 -384 -332 -105 -25 -195 -7 -269 53 -12 10 -38 45 -57 77 -33 54 -34 61
-21 77 9 9 15 20 14 25 -1 5 -1 17 0 27 1 16 3 16 25 2 32 -22 74 -87 96 -149
12 -37 22 -51 36 -51 15 0 19 7 17 33 -2 47 -57 155 -95 187 l-31 26 24 17
c31 21 113 97 158 146 64 68 120 157 151 237 31 81 37 114 21 123 -14 9 -41
-5 -41 -21 0 -30 -54 -150 -96 -214 -55 -83 -191 -214 -268 -259 -82 -47 -123
-45 -229 8 -138 71 -272 201 -341 332 -44 84 -128 299 -120 311 3 5 11 9 18 9
8 0 19 7 26 15 19 23 27 18 22 -14 -8 -58 48 -120 83 -91 19 16 19 80 0 107
-13 19 -13 21 5 26 12 3 20 14 20 26 0 19 -6 21 -52 21 -29 -1 -64 -7 -78 -15
-14 -8 -27 -14 -30 -15 -3 0 -4 42 -2 94 l3 95 42 3 c34 2 42 7 42 23 0 16 -8
21 -42 23 l-43 3 0 99 0 100 53 30 c28 16 66 30 83 30 17 0 37 7 44 15 18 22
134 20 185 -4z m-2577 -194 c6 -12 -9 -67 -18 -67 -7 0 -30 53 -30 69 0 9 44
6 48 -2z m-74 -75 c17 -33 17 -33 -3 -22 -13 7 -21 21 -21 37 0 30 2 29 24
-15z m29 -88 c21 -5 27 -12 27 -33 0 -54 31 -148 84 -256 52 -106 54 -112 44
-156 -16 -71 11 -151 72 -210 26 -26 66 -53 90 -61 40 -13 46 -19 70 -79 14
-35 39 -90 55 -121 27 -54 28 -57 11 -82 -26 -41 -135 -125 -268 -208 -68 -42
-131 -80 -140 -83 -12 -5 -22 3 -34 27 -70 137 -256 252 -459 285 -108 18
-110 19 -120 49 -17 50 -45 85 -82 101 l-36 14 45 47 c119 123 160 190 238
386 24 59 54 121 68 138 14 16 63 54 109 85 79 52 134 109 149 155 4 15 12 18
27 14 12 -4 34 -9 50 -12z m730 -41 c-11 -72 -12 -73 -48 -73 -19 0 -35 3 -35
8 0 4 16 23 35 42 19 19 35 38 35 42 0 4 4 8 9 8 4 0 6 -12 4 -27z m426 -20
c2 -2 -14 -2 -37 -1 -43 1 -47 5 -36 32 6 15 24 7 73 -31z m183 -89 c5 -16 9
-67 11 -114 2 -79 4 -85 24 -88 16 -2 31 10 60 47 33 43 43 50 74 50 44 1 68
-22 76 -73 8 -53 -15 -122 -56 -164 -34 -36 -35 -36 -39 -14 -4 25 -28 40 -42
26 -5 -5 -13 -54 -20 -109 -14 -123 -43 -241 -75 -305 -77 -151 -279 -310
-396 -310 -57 0 -171 38 -256 86 -132 74 -217 193 -293 414 -29 85 -40 105
-56 105 -15 0 -19 -6 -16 -32 2 -38 1 -38 -37 -18 -65 33 -109 122 -96 191 11
59 71 71 140 29 22 -14 53 -25 69 -25 32 0 32 -4 2 105 -9 32 -16 76 -16 96 0
36 2 38 41 44 22 4 43 5 46 2 2 -3 25 5 50 19 34 18 62 24 105 24 69 0 68 1
16 -104 -36 -71 -32 -91 17 -83 46 8 145 68 184 112 36 42 44 44 31 9 -10 -26
1 -54 21 -54 18 0 101 84 126 127 24 41 27 43 73 43 27 0 61 -5 77 -11 23 -9
30 -7 42 8 13 17 20 18 60 7 37 -9 47 -16 53 -40z m3218 -24 c0 -6 -12 -39
-27 -73 -25 -59 -27 -72 -31 -255 -6 -264 20 -494 81 -737 136 -536 399 -1048
692 -1345 55 -57 109 -98 183 -142 102 -62 177 -128 169 -151 -2 -8 -28 -12
-68 -12 -53 0 -76 6 -129 32 -215 108 -522 418 -702 710 -150 242 -272 542
-351 863 -65 263 -121 666 -121 870 0 176 17 203 144 229 102 21 160 25 160
11z m174 -46 c54 -13 159 -56 337 -136 l67 -30 -14 -60 c-8 -33 -19 -105 -25
-160 -20 -183 21 -439 96 -596 28 -59 31 -72 17 -68 -146 45 -326 54 -402 19
-53 -24 -73 -44 -64 -67 8 -20 47 -21 63 -2 30 36 197 45 302 16 l37 -10 0
-130 c1 -166 17 -315 91 -890 17 -133 19 -187 4 -132 -3 12 -9 20 -13 17 -13
-8 -170 213 -244 345 -294 523 -453 1123 -433 1641 4 120 8 143 33 201 32 74
27 72 148 42z m-6508 -53 c-17 -11 -34 -17 -39 -14 -6 3 -7 1 -3 -5 4 -7 -4
-27 -17 -44 -14 -18 -34 -51 -45 -73 -18 -37 -154 -367 -220 -535 -34 -87 -31
-94 -61 125 -34 246 -52 412 -49 452 l3 38 75 7 c41 4 127 20 190 36 63 17
133 31 155 31 l40 1 -29 -19z m5980 -47 c-3 -9 -6 -31 -6 -50 0 -32 -1 -33
-27 -23 -34 13 -63 38 -63 55 0 6 17 16 38 22 55 15 65 14 58 -4z m-6 -158 c0
-47 49 -440 71 -571 62 -371 197 -761 357 -1040 53 -91 114 -187 139 -218 13
-16 20 -34 17 -39 -4 -6 -3 -9 2 -6 5 3 25 -15 44 -40 19 -25 45 -56 58 -69
12 -14 20 -29 16 -34 -3 -5 -2 -8 3 -7 5 2 52 -40 104 -92 52 -52 125 -120
161 -150 56 -45 65 -57 55 -70 -10 -13 -10 -13 5 -2 14 12 21 11 43 -5 29 -21
30 -24 50 -163 20 -137 28 -164 49 -168 35 -7 37 12 16 133 -11 65 -18 120
-16 123 6 5 27 -37 69 -138 19 -47 46 -110 60 -141 14 -31 23 -60 20 -63 -4
-3 -2 -6 4 -6 14 0 35 -59 26 -73 -3 -5 -2 -7 4 -4 12 8 225 -424 303 -615 13
-32 22 -59 19 -60 -2 -2 -30 -16 -62 -33 -33 -16 -94 -52 -137 -80 -107 -68
-113 -72 -382 -226 -132 -76 -325 -176 -383 -197 -67 -25 -175 -52 -269 -68
-137 -23 -429 -15 -569 15 -89 20 -220 58 -272 79 -107 45 -275 134 -269 144
4 7 3 8 -5 4 -23 -15 -159 92 -187 146 -13 26 -12 40 20 171 45 184 63 272 75
376 6 46 12 86 14 88 5 5 83 -154 107 -219 16 -44 26 -58 41 -58 27 0 34 26
19 69 -27 79 -123 265 -168 329 -13 18 -20 37 -16 44 4 7 4 10 -1 6 -12 -12
-46 38 -39 59 4 13 3 14 -3 5 -8 -10 -12 -10 -22 2 -7 8 -9 21 -5 27 4 7 3 10
-2 6 -9 -5 -41 36 -170 212 -52 72 -66 100 -42 85 7 -4 8 -3 4 5 -4 6 -11 9
-16 6 -24 -15 -174 263 -215 400 -14 50 -31 98 -36 108 -10 19 -14 44 -54 422
-31 288 -47 395 -78 537 l-24 108 18 107 c22 127 55 225 88 261 l24 27 11 -31
c18 -50 69 -119 112 -153 66 -51 122 -65 228 -58 142 9 258 61 358 159 101
100 165 243 170 378 1 30 8 65 15 76 12 19 19 20 56 13 73 -14 138 9 124 43
-10 27 -6 33 21 33 21 0 33 10 57 47 19 29 38 47 50 48 11 0 31 6 45 13 14 7
40 13 57 12 30 0 33 -3 33 -29z m-6107 -248 c17 -224 98 -442 209 -562 60 -67
137 -113 227 -140 68 -20 212 -21 274 -2 26 8 47 12 47 10 0 -15 -347 -433
-522 -629 -298 -333 -1083 -1135 -1073 -1095 4 14 36 114 71 222 71 218 124
390 285 928 129 429 228 734 297 915 89 233 167 425 173 425 3 0 9 -33 12 -72z
m3780 -122 c30 -8 74 -12 100 -9 50 6 56 0 33 -32 -7 -11 -28 -65 -46 -120
-40 -124 -48 -246 -31 -472 24 -310 66 -537 148 -793 40 -128 106 -390 99
-397 -9 -9 -182 326 -229 444 -49 123 -138 454 -172 638 -24 128 -28 177 -29
335 0 159 17 389 31 413 6 11 36 9 96 -7z m-349 -49 c20 -73 -18 -274 -72
-386 -68 -143 -226 -269 -383 -306 -138 -32 -261 -9 -368 70 -105 77 -218 254
-243 378 -11 58 -11 59 18 88 l29 29 57 -54 c97 -91 290 -176 402 -176 133 0
345 164 433 335 l37 72 42 -14 c28 -9 44 -22 48 -36z m586 37 c0 -2 -7 -4 -15
-4 -8 0 -15 4 -15 10 0 5 7 7 15 4 8 -4 15 -8 15 -10z m-4301 -152 c19 -133
19 -134 0 -180 -25 -58 -149 -450 -283 -897 -124 -416 -126 -421 -121 -340 2
33 7 204 10 380 11 586 31 967 55 1030 6 16 39 35 122 69 62 26 131 55 153 65
22 10 41 16 42 12 1 -3 11 -66 22 -139z m1379 81 c-12 -21 -25 -40 -28 -43 -3
-3 -32 -45 -64 -95 l-59 -90 7 55 c3 30 6 71 6 91 0 36 2 38 78 77 42 22 78
41 79 41 1 1 -7 -16 -19 -36z m2520 22 c1 -1 -2 -42 -8 -91 -5 -49 -10 -159
-10 -244 0 -192 24 -364 84 -601 89 -352 154 -509 355 -858 l111 -195 24 -125
c14 -70 30 -170 36 -223 l11 -97 -53 -78 c-29 -43 -74 -114 -101 -158 -27 -44
-55 -83 -62 -88 -8 -4 -19 -22 -25 -41 -11 -33 -11 -34 -50 -24 -22 6 -40 15
-40 20 0 5 18 124 39 266 65 420 63 402 48 452 -15 50 -53 82 -120 102 -35 11
-75 5 -371 -51 -182 -34 -345 -69 -362 -77 -61 -30 -60 -27 -149 -747 l-84
-672 27 -55 c20 -40 39 -62 75 -84 l47 -29 78 15 77 15 55 -54 c65 -65 161
-114 280 -143 155 -37 249 -22 293 46 17 25 32 35 62 40 73 12 139 68 162 138
6 19 24 38 49 52 21 12 49 37 62 55 41 60 53 69 73 59 29 -16 57 -12 97 14 80
52 203 200 348 417 52 78 94 136 95 128 0 -8 2 -32 5 -54 7 -63 44 -658 44
-709 l0 -45 -122 -40 c-500 -162 -1017 -257 -1454 -268 -386 -10 -650 34 -889
147 l-82 40 4 242 c3 134 1 282 -4 329 l-9 86 43 49 c52 59 116 185 138 273
20 78 35 238 28 306 -2 28 -5 159 -5 292 -1 222 -2 244 -19 259 -10 9 -25 14
-34 11 -13 -5 -15 6 -15 76 1 129 15 199 61 299 38 84 43 101 47 191 4 91 7
103 37 148 62 92 53 170 -26 213 -24 13 -41 33 -53 63 -12 29 -30 50 -56 66
-35 20 -37 24 -24 42 22 30 17 71 -12 94 -59 46 -148 61 -295 49 -67 -5 -91
-21 -182 -117 -143 -152 -186 -223 -187 -303 0 -50 0 -49 154 -338 64 -120 74
-178 34 -195 -38 -17 -49 -57 -53 -188 -2 -68 -9 -143 -15 -167 -7 -24 -15
-85 -20 -135 -4 -49 -16 -114 -27 -143 l-20 -53 -6 38 c-4 21 -7 99 -7 174 0
226 -25 505 -70 779 -55 335 -59 429 -23 585 38 167 110 255 309 380 60 38
161 103 224 144 63 42 118 77 121 79 4 1 9 -16 12 -38 13 -96 128 -285 225
-371 283 -250 763 -81 897 316 23 69 45 199 45 268 l0 58 63 -7 c34 -4 63 -8
65 -9z m468 -20 c178 -31 298 -116 415 -293 57 -86 69 -122 109 -312 40 -187
52 -273 100 -726 22 -206 58 -497 80 -645 64 -429 69 -584 21 -708 -50 -131
-259 -449 -408 -619 l-38 -44 -1 99 c-1 113 -28 209 -95 329 -42 77 -121 159
-163 170 -14 3 -26 10 -26 15 0 12 87 151 143 229 79 110 121 119 385 84 53
-7 54 -6 50 17 -2 20 -12 26 -58 37 -78 19 -247 20 -288 3 -43 -18 -47 -11
-56 81 -7 82 -49 300 -111 577 -117 530 -142 852 -82 1076 13 50 30 105 38
123 12 28 12 34 0 42 -25 15 -39 0 -64 -68 -45 -123 -52 -174 -52 -399 0 -116
-1 -211 -1 -210 -1 1 -13 58 -28 127 -45 222 -59 368 -60 610 l-1 225 33 98
c38 110 27 104 158 82z m-2461 -145 c119 -57 221 -145 258 -222 15 -32 15 -32
-16 -51 -18 -11 -62 -46 -98 -78 -37 -32 -70 -55 -74 -51 -5 4 -5 1 -1 -6 4
-7 -2 -25 -14 -42 -82 -116 -117 -335 -90 -569 5 -47 8 -86 6 -88 -2 -2 -29
14 -60 35 -30 22 -75 45 -100 52 l-44 12 18 54 c22 62 17 86 -14 82 -23 -3
-19 7 -120 -308 -90 -279 -166 -584 -166 -666 0 -29 3 -34 24 -34 22 0 24 -5
35 -97 7 -54 19 -154 27 -221 9 -68 14 -126 11 -128 -2 -3 -7 15 -11 38 -4 24
-36 167 -71 318 l-65 276 40 274 c22 151 45 309 51 350 5 41 21 131 35 200 17
81 24 142 21 172 -7 53 -45 134 -112 233 -26 39 -51 78 -56 88 -8 14 6 41 67
130 42 62 101 138 130 169 30 31 54 64 54 73 0 9 9 29 20 44 l19 28 126 -23
c69 -12 146 -32 170 -44z m2828 28 c12 -6 35 -14 50 -17 l29 -6 -24 -22 -23
-22 -33 40 c-35 41 -35 46 1 27z m217 -21 c0 -2 -9 -29 -20 -61 -10 -31 -24
-84 -31 -117 l-12 -61 -33 62 c-18 33 -37 67 -43 74 -9 10 -7 19 6 35 22 26
133 83 133 68z m2641 -290 c44 -69 115 -218 199 -411 87 -203 110 -265 103
-282 -11 -28 -171 -45 -192 -21 -6 8 -18 49 -27 93 -16 78 -151 416 -200 500
-13 23 -37 55 -54 70 -27 26 -39 62 -25 76 3 3 24 2 48 -2 28 -6 51 -4 72 5
45 20 48 19 76 -28z m-137 -191 c76 -161 157 -370 172 -443 19 -90 39 -129 69
-137 15 -4 28 -22 43 -58 11 -29 68 -156 127 -282 159 -342 208 -475 240 -658
39 -222 -3 -365 -126 -428 l-36 -19 -96 197 c-88 182 -175 376 -191 429 -7 21
-5 21 26 12 62 -17 134 -11 164 14 61 53 1 135 -170 236 -55 32 -115 74 -132
92 l-31 34 -42 320 c-42 330 -64 530 -77 695 -6 88 -6 94 10 81 9 -8 32 -46
50 -85z m-6129 -21 c64 -93 105 -182 105 -226 0 -20 -11 -90 -24 -155 -13 -66
-41 -237 -62 -381 -21 -145 -39 -261 -41 -260 -1 2 -11 50 -22 108 -56 289
-81 529 -81 767 l0 134 32 44 c17 24 35 43 39 42 4 -2 28 -34 54 -73z m-175
-225 c0 -231 39 -534 109 -854 l31 -139 -76 -236 c-239 -745 -227 -713 -301
-792 -115 -123 -366 -281 -585 -368 -66 -27 -87 -46 -70 -63 16 -16 53 -3 227
82 150 73 283 155 382 238 72 60 62 73 98 -128 34 -194 33 -233 -3 -259 -80
-57 -274 -118 -500 -158 -148 -26 -174 -28 -457 -28 -264 0 -318 3 -447 23
-230 36 -538 114 -538 137 0 7 29 88 64 181 35 93 97 263 137 377 l74 209 266
228 c417 357 630 566 965 945 166 187 512 608 590 717 10 15 22 28 27 28 4 0
7 -63 7 -140z m1433 58 c50 -22 54 -27 36 -45 -9 -9 -19 -6 -41 10 -19 14 -45
22 -73 22 -42 1 -75 17 -75 37 0 15 97 -1 153 -24z m-205 -7 l33 -28 -38 -28
c-61 -44 -222 -216 -216 -231 11 -28 37 -11 140 91 145 143 215 173 269 114
18 -20 18 -21 -11 -41 -17 -12 -67 -59 -112 -106 -65 -67 -80 -88 -72 -99 20
-23 35 -15 105 60 72 76 113 110 152 121 17 6 29 0 52 -23 17 -16 30 -34 30
-39 0 -6 -20 -20 -45 -32 -46 -22 -165 -143 -165 -168 0 -7 7 -15 16 -19 10
-4 39 18 89 70 80 83 120 101 171 75 35 -17 52 -58 24 -58 -38 0 -53 -54 -61
-205 -6 -129 -9 -145 -39 -210 -58 -127 -62 -143 -69 -305 l-6 -155 -69 -3
c-57 -2 -77 1 -120 22 -64 32 -117 76 -166 137 -37 47 -37 47 -27 105 6 37 17
64 29 74 20 16 19 18 -30 121 -28 57 -85 167 -126 244 -89 165 -92 185 -42
268 53 88 233 275 267 277 3 0 20 -13 37 -29z m-2248 -837 c0 -8 -19 -13 -24
-6 -3 5 1 9 9 9 8 0 15 -2 15 -3z m5104 -545 c86 -404 100 -506 101 -734 l0
-170 -34 -69 c-21 -44 -55 -90 -95 -129 l-61 -60 -7 49 c-4 27 -14 152 -23
277 l-16 228 37 87 c32 75 38 100 42 183 6 124 -24 408 -73 694 -3 19 12 -2
39 -56 38 -74 51 -114 90 -300z m-3029 325 c29 -55 141 -153 212 -186 57 -27
72 -30 142 -27 61 3 86 9 108 25 l29 21 -1 -366 c-1 -410 -2 -418 -75 -567
-46 -94 -113 -164 -157 -164 -71 0 -227 117 -293 219 -17 27 -42 77 -56 112
-30 79 -65 245 -58 279 13 58 58 200 63 200 3 0 26 -20 50 -44 24 -25 71 -59
105 -78 53 -28 71 -33 133 -33 72 0 89 6 95 35 2 12 -11 15 -72 15 -88 0 -148
25 -218 89 -80 73 -86 112 -51 285 12 59 19 128 17 162 -1 32 -1 59 2 59 3 0
14 -16 25 -36z m-840 -329 c76 -327 113 -516 139 -715 24 -178 46 -447 46
-554 l0 -96 -47 37 c-27 20 -84 53 -128 74 -77 36 -253 94 -305 101 -23 3 -25
8 -27 53 -2 28 -17 129 -34 225 l-30 175 33 55 c30 51 77 179 156 430 149 470
144 458 150 425 2 -11 23 -105 47 -210z m2808 144 c49 -22 49 -42 13 -282 -19
-122 -42 -273 -51 -334 l-17 -113 -47 0 c-25 -1 -77 -5 -116 -10 -38 -6 -129
-14 -202 -20 -72 -5 -143 -14 -157 -20 -41 -15 -66 -47 -66 -83 0 -75 83 -105
320 -117 91 -4 178 -13 194 -19 l29 -11 -7 -73 c-4 -39 -11 -75 -14 -79 -4 -4
-54 4 -112 17 -191 44 -514 114 -557 120 -33 5 -43 11 -43 25 0 52 101 834
110 851 6 10 18 23 28 28 9 5 118 28 242 51 124 24 263 51 310 60 106 22 114
22 143 9z m-745 -97 l-31 -29 -58 -454 c-31 -250 -57 -443 -58 -429 0 14 23
220 53 458 49 399 55 435 76 457 13 14 30 25 37 25 7 0 -1 -13 -19 -28z
m-4259 -683 c-23 -63 -47 -132 -54 -154 -12 -37 -91 -245 -180 -478 -21 -54
-39 -96 -41 -95 -7 8 20 177 52 327 39 181 99 389 117 408 18 18 142 111 144
108 2 -1 -16 -53 -38 -116z m5181 48 c0 -2 -9 -12 -20 -22 -19 -18 -20 -17
-20 3 0 15 6 22 20 22 11 0 20 -2 20 -3z m95 -68 c53 -59 122 -208 140 -302
23 -121 22 -130 -27 -163 -72 -49 -71 -49 -59 -25 7 12 12 50 12 86 1 59 -4
75 -51 167 -29 56 -69 127 -90 159 l-39 57 32 30 c18 17 35 31 38 31 4 1 23
-17 44 -40z m-265 10 c85 -18 142 -84 240 -278 31 -63 42 -96 43 -135 1 -59
-5 -74 -40 -87 -23 -9 -24 -12 -18 -58 11 -83 -22 -122 -114 -135 -45 -6 -57
-26 -29 -47 21 -17 21 -17 2 -50 -79 -134 -333 -86 -629 120 -175 121 -289
210 -317 244 l-27 34 87 -37 c48 -21 177 -71 287 -110 110 -40 235 -88 278
-107 84 -35 102 -39 112 -23 17 27 -49 59 -315 156 -297 107 -405 153 -435
184 -25 26 -27 32 -15 40 23 15 88 12 175 -9 44 -11 134 -31 200 -46 66 -14
210 -46 321 -71 209 -46 234 -50 234 -35 0 5 9 7 20 4 36 -10 35 25 -3 102
-81 165 -158 205 -393 205 -154 0 -264 29 -264 71 0 28 36 39 179 50 70 5 153
13 186 18 89 12 177 12 235 0z m-6263 -35 c3 -9 -16 -57 -44 -112 -28 -53 -54
-112 -58 -129 -4 -20 -13 -33 -22 -33 -13 0 -15 9 -10 49 3 27 15 67 26 88 10
21 27 64 36 96 14 49 20 57 41 57 14 0 27 -7 31 -16z m473 -99 c0 -14 -13 -60
-29 -103 -16 -42 -35 -96 -42 -119 -12 -44 -29 -58 -29 -25 0 10 11 56 25 103
13 46 25 96 25 111 0 40 10 58 31 58 14 0 19 -7 19 -25z m5770 -175 c11 -22
20 -43 20 -48 0 -9 -43 -32 -60 -32 -11 0 -13 38 -4 92 8 44 17 41 44 -12z
m-912 -236 c-6 -54 -14 -103 -18 -107 -4 -4 -1 39 6 95 7 57 13 107 14 112 0
5 2 7 5 4 3 -3 0 -50 -7 -104z m112 10 c0 -3 -5 -14 -10 -24 -13 -25 6 -74 55
-140 19 -26 35 -50 35 -53 0 -7 -81 -21 -100 -18 -8 1 -26 13 -39 26 l-24 24
12 115 13 116 29 -21 c16 -11 29 -23 29 -25z m1206 -22 c-23 -23 -33 -6 -10
19 12 13 20 16 22 9 3 -7 -3 -19 -12 -28z m-1058 -86 c163 -114 244 -166 305
-194 73 -35 189 -72 223 -72 34 0 30 -26 -6 -45 -83 -43 -339 23 -444 116 -40
34 -186 223 -186 240 0 21 36 6 108 -45z m1601 -385 c1 -88 -7 -92 -10 -5 -2
52 -5 61 -19 57 -14 -4 -16 -20 -16 -121 1 -114 0 -117 -21 -120 -23 -3 -23
-1 -25 110 0 62 -1 118 -1 125 0 8 -14 10 -45 7 -25 -3 -43 -2 -40 1 3 3 21 7
40 9 19 2 41 7 49 12 8 5 28 14 44 19 39 13 43 3 44 -94z m-264 13 c-49 -13
-94 -22 -100 -20 -14 4 135 44 165 44 14 0 -15 -11 -65 -24z m-2218 -67 c15 6
16 5 3 -9 -11 -12 -19 -13 -32 -4 -10 6 -18 17 -18 24 0 10 4 10 15 -2 9 -9
23 -12 32 -9z m1823 -33 c-25 -7 -49 -13 -55 -13 -18 1 59 27 80 28 11 0 0 -7
-25 -15z m-1860 -13 c0 -9 3 -33 6 -53 4 -24 3 -38 -4 -38 -6 0 -11 8 -11 18
-2 35 -7 68 -14 78 -3 6 0 11 8 11 8 0 15 -7 15 -16z m2527 -3 c-3 -8 -6 -5
-6 6 -1 11 2 17 5 13 3 -3 4 -12 1 -19z m-614 5 c-7 -2 -19 -2 -25 0 -7 3 -2
5 12 5 14 0 19 -2 13 -5z m-1713 -18 c25 -14 25 -14 3 -15 -13 0 -23 4 -23 9
0 5 -10 12 -22 14 -20 4 -20 4 -3 5 11 1 31 -5 45 -13z m1547 9 c-3 -3 -12 -4
-19 -1 -8 3 -5 6 6 6 11 1 17 -2 13 -5z m-1352 -64 c-3 -5 -12 -7 -20 -3 -21
7 -19 13 6 13 11 0 18 -4 14 -10z m1023 3 c-10 -2 -26 -2 -35 0 -10 3 -2 5 17
5 19 0 27 -2 18 -5z m-1095 -10 c-7 -2 -19 -2 -25 0 -7 3 -2 5 12 5 14 0 19
-2 13 -5z m136 3 c-2 -2 -17 -6 -34 -10 -22 -5 -26 -4 -15 4 14 9 59 15 49 6z
m901 0 c0 -2 -13 -6 -29 -8 -17 -2 -28 -1 -25 4 5 8 54 12 54 4z m-847 -13
c-7 -2 -19 -2 -25 0 -7 3 -2 5 12 5 14 0 19 -2 13 -5z m754 1 c-3 -3 -12 -4
-19 -1 -8 3 -5 6 6 6 11 1 17 -2 13 -5z m-127 -14 c0 -5 -7 -10 -16 -10 -8 0
-12 5 -9 10 3 6 10 10 16 10 5 0 9 -4 9 -10z m68 -7 c-10 -2 -28 -2 -40 0 -13
2 -5 4 17 4 22 1 32 -1 23 -4z"/>
<path d="M9978 5238 c-24 -37 -30 -64 -15 -76 7 -6 17 -8 23 -4 18 12 52 77
47 90 -7 20 -39 14 -55 -10z"/>
<path d="M9377 5220 c-48 -9 -91 -40 -95 -69 -4 -26 23 -29 50 -4 19 17 19 16
13 -10 -9 -33 10 -84 37 -98 49 -26 83 32 53 90 -8 17 -20 31 -25 31 -6 0 -10
5 -10 10 0 6 16 10 38 8 31 -3 37 0 40 18 4 31 -27 39 -101 24z"/>
<path d="M9085 5070 c-4 -6 7 -32 25 -58 37 -57 45 -84 31 -110 -21 -40 -13
-88 19 -115 37 -32 85 -43 106 -26 14 12 14 15 -6 31 -12 10 -27 18 -34 18 -6
0 -21 7 -33 15 -21 15 -21 17 -7 58 19 52 12 87 -27 149 -30 46 -60 61 -74 38z"/>
<path d="M9407 4746 c-83 -34 -207 -108 -219 -129 -16 -30 9 -75 59 -103 120
-71 236 -46 284 61 26 56 25 135 -2 169 -25 32 -47 32 -122 2z m91 -60 c9 -78
-33 -150 -94 -162 -48 -9 -117 12 -149 46 l-26 27 47 28 c75 44 188 95 204 92
8 -1 16 -15 18 -31z"/>
<path d="M7702 4860 c-31 -14 -42 -25 -40 -37 3 -12 12 -17 28 -16 23 1 25 -2
25 -44 0 -63 43 -94 80 -56 17 16 17 68 1 105 -7 16 -5 17 24 7 22 -8 35 -8
42 -1 18 18 1 40 -39 51 -53 15 -71 14 -121 -9z"/>
<path d="M8111 4844 c-25 -31 -27 -60 -6 -68 19 -7 69 58 61 79 -8 23 -32 18
-55 -11z"/>
<path d="M7173 4801 c-44 -21 -56 -47 -27 -58 9 -3 25 -1 35 5 27 17 30 15 17
-13 -13 -30 4 -80 34 -96 41 -22 76 43 52 99 -12 29 -12 30 18 28 17 0 32 4
34 9 14 42 -93 59 -163 26z"/>
<path d="M7457 4808 c-2 -7 2 -30 9 -52 20 -55 17 -76 -11 -118 -30 -45 -32
-77 -4 -112 36 -46 99 -66 99 -31 0 7 -16 25 -35 39 -40 31 -43 43 -14 79 29
38 34 86 15 151 -13 42 -21 56 -35 56 -11 0 -21 -6 -24 -12z"/>
<path d="M6877 4723 c-14 -14 -5 -39 24 -61 55 -44 82 -3 28 42 -32 27 -41 31
-52 19z"/>
<path d="M7455 4391 c-82 -20 -95 -27 -95 -48 0 -30 51 -104 92 -133 77 -56
154 -52 223 11 45 42 88 126 83 162 -3 21 -8 22 -118 24 -81 1 -136 -3 -185
-16z m245 -41 c0 -22 -30 -68 -60 -94 -41 -34 -73 -41 -120 -27 -39 12 -104
74 -97 94 2 6 23 17 48 23 57 15 229 18 229 4z"/>
<path d="M6901 3786 c-9 -11 -9 -31 1 -88 11 -62 16 -73 33 -73 18 0 20 6 17
63 -4 97 -23 132 -51 98z"/>
<path d="M7065 3640 c-27 -53 -26 -70 3 -70 22 0 68 81 59 104 -12 30 -37 16
-62 -34z"/>
<path d="M6684 3666 c-7 -18 44 -96 63 -96 26 0 25 30 -1 70 -27 41 -52 51
-62 26z"/>
<path d="M9484 465 c-19 -14 -19 -14 2 -15 12 0 24 7 28 15 7 19 -5 19 -30 0z"/>
<path d="M4006 7581 c-10 -15 -45 -234 -40 -243 7 -11 32 -10 39 2 12 19 45
220 39 235 -7 17 -30 20 -38 6z"/>
<path d="M3906 7538 c-30 -157 -27 -195 10 -170 14 9 34 99 34 152 0 33 -3 40
-20 40 -12 0 -21 -8 -24 -22z"/>
<path d="M11405 7218 c-2 -7 -6 -40 -10 -74 -6 -62 7 -92 31 -76 14 9 28 115
19 142 -7 22 -33 27 -40 8z"/>
<path d="M11703 7192 c-18 -12 -65 -113 -59 -128 11 -28 35 -12 65 43 17 31
31 62 31 69 0 15 -23 25 -37 16z"/>
<path d="M11803 6930 c-41 -18 -55 -42 -33 -55 6 -4 29 0 53 9 23 8 54 17 70
20 18 5 27 13 27 26 0 17 -7 20 -37 19 -21 0 -57 -9 -80 -19z"/>
<path d="M6257 5943 c-15 -15 -4 -35 44 -80 87 -81 109 -153 68 -219 -22 -36
-19 -54 11 -54 28 0 62 62 62 114 0 64 -33 129 -97 192 -53 51 -73 62 -88 47z"/>
<path d="M6095 5870 c-16 -4 -75 -26 -130 -48 -168 -68 -229 -74 -323 -30 -83
39 -100 -9 -17 -51 42 -22 63 -26 135 -26 79 1 94 4 213 53 70 29 140 52 155
52 54 0 96 -51 110 -133 5 -29 13 -43 26 -45 27 -6 34 14 25 65 -22 115 -105
185 -194 163z"/>
<path d="M6052 5646 c-29 -14 -73 -40 -99 -58 -107 -73 -217 -95 -331 -66
l-46 11 64 14 c87 17 174 62 178 91 5 30 -23 29 -79 -2 -70 -39 -155 -52 -231
-37 -92 19 -102 18 -106 -2 -4 -21 17 -39 91 -78 63 -33 52 -38 -98 -49 -124
-8 -168 -21 -163 -48 3 -12 12 -16 33 -14 17 1 80 6 140 11 79 5 125 14 163
31 l53 23 15 -22 c12 -17 25 -21 68 -21 62 0 137 -23 162 -51 22 -24 54 -25
54 -1 0 20 -31 52 -69 72 -24 12 -23 13 40 45 35 17 90 48 121 69 103 65 129
67 148 11 12 -36 29 -48 50 -35 11 7 11 16 2 48 -23 77 -77 97 -160 58z"/>
<path d="M4995 5300 c-9 -15 34 -100 51 -100 35 0 22 80 -17 100 -22 12 -26
12 -34 0z"/>
<path d="M5603 5253 c-7 -2 -13 -13 -13 -24 0 -16 7 -19 40 -19 22 0 40 -2 40
-4 0 -3 -13 -18 -30 -34 -18 -19 -30 -41 -30 -57 0 -89 80 -87 111 3 9 27 8
37 -6 58 -19 29 -6 25 33 -9 21 -19 24 -20 39 -5 15 15 14 19 -14 46 -40 40
-126 63 -170 45z"/>
<path d="M5927 5058 c-49 -68 -57 -83 -57 -120 0 -20 5 -49 12 -64 11 -23 10
-28 -12 -46 -13 -10 -36 -22 -51 -25 -32 -6 -44 -27 -24 -43 10 -8 24 -8 52
-1 71 19 104 70 84 125 -18 45 -13 71 25 126 35 51 39 80 10 80 -8 0 -26 -15
-39 -32z"/>
<path d="M6052 5058 c2 -14 13 -25 28 -29 14 -4 19 -7 12 -8 -7 -1 -21 -16
-32 -33 -37 -61 -18 -117 35 -104 47 12 75 113 38 135 -16 9 -16 10 -1 11 9 0
30 -11 46 -25 34 -28 48 -31 55 -11 15 39 -60 86 -138 86 -42 0 -46 -2 -43
-22z"/>
<path d="M5552 4725 c-41 -30 -65 -91 -60 -159 4 -55 8 -62 46 -97 68 -60 155
-62 240 -5 44 29 92 87 92 109 0 33 -194 156 -260 164 -22 3 -43 -1 -58 -12z
m101 -56 c83 -42 157 -91 157 -104 0 -22 -67 -73 -112 -86 -117 -31 -200 76
-138 179 23 38 36 39 93 11z"/>
<path d="M7090 300 c12 -8 12 -10 1 -10 -8 0 -12 -2 -9 -5 3 -3 13 -2 22 1 14
5 15 9 4 15 -7 5 -17 9 -23 9 -5 0 -3 -5 5 -10z"/>
<path d="M9079 276 c-4 -4 -42 -12 -71 -15 -5 -1 -8 -9 -8 -18 1 -17 1 -17 11
-1 9 16 12 16 50 1 43 -17 67 -8 56 21 -6 15 -28 22 -38 12z m28 -12 c-3 -3
-12 -4 -19 -1 -8 3 -5 6 6 6 11 1 17 -2 13 -5z"/>
<path d="M7090 261 c0 -6 5 -13 10 -16 6 -3 10 1 10 9 0 9 -4 16 -10 16 -5 0
-10 -4 -10 -9z"/>
<path d="M8813 243 c-7 -3 -13 -10 -13 -17 0 -13 -40 -13 -125 -2 -22 3 -31 3
-20 0 11 -3 39 -12 63 -20 45 -17 112 -12 112 7 0 6 -6 7 -12 3 -9 -5 -8 -2 1
9 15 19 13 27 -6 20z"/>
<path d="M8915 220 c-3 -5 1 -10 9 -10 9 0 16 -5 16 -11 0 -5 5 -7 10 -4 6 3
10 13 10 21 0 16 -36 19 -45 4z"/>
<path d="M8554 212 c-7 -4 20 -7 60 -8 60 -1 65 0 31 7 -51 10 -77 11 -91 1z"/>
<path d="M7223 203 c9 -2 23 -2 30 0 6 3 -1 5 -18 5 -16 0 -22 -2 -12 -5z"/>
<path d="M9127 188 c-7 -4 59 -8 146 -8 86 0 157 3 157 8 0 9 -288 10 -303 0z"/>
<path d="M7963 173 c9 -2 23 -2 30 0 6 3 -1 5 -18 5 -16 0 -22 -2 -12 -5z"/>
<path d="M8048 173 c6 -2 18 -2 25 0 6 3 1 5 -13 5 -14 0 -19 -2 -12 -5z"/>
<path d="M7595 158 c-5 -5 -19 -15 -30 -23 -19 -14 -18 -14 12 -15 22 0 36 6
42 19 12 21 -6 35 -24 19z"/>
<path d="M7680 150 c0 -6 17 -10 37 -10 43 0 41 5 -4 13 -19 4 -33 2 -33 -3z"/>
<path d="M7458 143 c12 -2 32 -2 45 0 12 2 2 4 -23 4 -25 0 -35 -2 -22 -4z"/>
<path d="M8240 140 c0 -5 6 -10 14 -10 8 0 18 5 21 10 3 6 -3 10 -14 10 -12 0
-21 -4 -21 -10z"/>
</g>
</svg>
